<?xml version="1.0" encoding="UTF-8"?>
<!DOCTYPE svg PUBLIC "-//W3C//DTD SVG 1.1//EN" "http://www.w3.org/Graphics/SVG/1.1/DTD/svg11.dtd">
<!-- Creator: CorelDRAW X7 -->
<svg xmlns="http://www.w3.org/2000/svg" xml:space="preserve" width="250.789mm" height="58.642mm" version="1.1" style="shape-rendering:geometricPrecision; text-rendering:geometricPrecision; image-rendering:optimizeQuality; fill-rule:evenodd; clip-rule:evenodd"
viewBox="0 0 25079 5864"
 xmlns:xlink="http://www.w3.org/1999/xlink">
 <defs>
  <style type="text/css">
   <![CDATA[
    .fil3 {fill:#EDBC61}
    .fil2 {fill:#BD1247}
    .fil1 {fill:#EDBC61;fill-rule:nonzero}
    .fil0 {fill:white;fill-rule:nonzero}
   ]]>
  </style>
 </defs>
 <g id="Camada_x0020_1">
  <metadata id="CorelCorpID_0Corel-Layer"/>
  <g id="_895620128">
   <path class="fil0" d="M10610 2440l0 1582 -492 0 0 -1582c68,51 154,74 246,74 92,0 178,-23 246,-74zm-1161 1421c-50,60 -114,109 -193,149 -79,40 -168,60 -268,60 -98,0 -190,-20 -275,-58 -86,-39 -160,-94 -222,-166 -63,-72 -113,-158 -149,-260 -36,-101 -55,-216 -55,-343 0,-144 26,-270 77,-378 51,-108 117,-197 198,-268 81,-71 171,-124 270,-159 99,-35 197,-53 293,-53 77,0 137,5 181,15 43,11 87,24 133,40l0 -1028c168,50 331,104 489,163l0 2447 -458 0 -21 -161zm-10 -1001c-34,-20 -71,-35 -111,-44 -40,-9 -90,-14 -149,-14 -125,0 -223,42 -292,126 -69,85 -104,193 -104,325 0,116 28,211 85,285 57,74 143,112 257,112 54,0 101,-10 141,-30 40,-19 73,-45 99,-76 27,-32 45,-70 57,-113 11,-43 17,-88 17,-133l0 -438zm2308 1012c-55,63 -141,112 -224,147 -83,34 -176,51 -278,51 -57,0 -117,-8 -180,-24 -62,-16 -121,-43 -174,-80 -54,-38 -98,-89 -133,-152 -36,-64 -53,-144 -53,-240 0,-93 18,-176 56,-249 38,-73 89,-134 156,-183 66,-49 144,-86 234,-111 90,-25 187,-38 292,-38 57,0 114,2 172,4 58,2 97,5 115,10l0 -34c0,-41 -9,-76 -26,-104 -17,-29 -40,-53 -68,-72 -29,-19 -61,-33 -98,-41 -36,-8 -75,-12 -116,-12 -109,0 -200,14 -271,41 -72,27 -133,58 -183,92l-202 -301c34,-25 73,-50 116,-75 44,-25 95,-48 154,-68 59,-21 126,-37 200,-50 74,-12 159,-18 255,-18 243,0 423,65 540,196 116,131 174,307 174,528l0 934 -459 0 1 -151zm-17 -557c-12,-3 -33,-6 -65,-9 -32,-3 -68,-5 -109,-5 -137,0 -234,19 -291,58 -57,39 -85,93 -85,164 0,132 79,198 239,198 39,0 77,-6 114,-19 38,-12 71,-30 99,-52 29,-23 52,-52 71,-86 18,-34 27,-74 27,-120l0 -129zm-8434 -96c0,-119 22,-230 64,-333 42,-104 101,-194 176,-272 75,-77 165,-138 271,-183 106,-44 223,-66 351,-66 127,0 243,22 348,66 105,45 195,106 270,183 75,78 134,168 176,272 42,103 63,214 63,333 0,118 -21,229 -63,333 -42,104 -101,194 -176,272 -75,77 -165,139 -270,184 -105,46 -221,69 -348,69 -128,0 -245,-23 -351,-69 -106,-45 -196,-107 -271,-184 -75,-78 -134,-168 -176,-272 -42,-104 -64,-215 -64,-333zm862 431c61,0 116,-12 164,-36 48,-24 88,-57 121,-98 33,-41 58,-87 73,-138 16,-51 24,-104 24,-159 0,-55 -8,-108 -24,-159 -15,-51 -40,-97 -73,-137 -33,-40 -73,-71 -121,-95 -48,-24 -103,-36 -164,-36 -62,0 -117,12 -166,36 -49,24 -90,55 -121,95 -32,40 -57,86 -74,137 -17,51 -25,104 -25,159 0,55 8,108 25,159 17,51 42,97 74,138 31,41 72,74 121,98 49,24 104,36 166,36zm966 -1231l471 0 17 178c51,-62 114,-113 192,-154 77,-41 168,-61 273,-61 64,0 121,7 171,20 50,14 94,32 132,53 37,22 70,46 99,72 28,26 52,52 70,77 66,-71 146,-125 241,-164 94,-39 193,-58 295,-58 205,0 362,58 470,174 108,116 162,274 162,475l0 991 -492 0 0 -912c0,-96 -21,-170 -63,-223 -42,-52 -105,-78 -190,-78 -95,0 -172,33 -228,99 -57,66 -86,150 -86,253l0 861 -475 0 0 -912c0,-96 -21,-170 -63,-223 -42,-52 -105,-78 -190,-78 -93,0 -169,33 -227,99 -58,66 -87,150 -87,253l0 861 -492 0 0 -1603zm-3067 -676l294 0c141,0 261,16 359,49 98,33 177,77 239,132 61,54 106,118 133,189 28,72 41,147 41,224 0,73 -13,138 -39,193 -26,56 -57,104 -92,144 -36,40 -73,71 -113,94 -40,23 -74,37 -101,44 41,9 88,26 142,50 53,24 104,58 152,102 48,45 88,101 121,168 33,67 50,146 50,237 0,119 -21,219 -63,301 -43,82 -102,149 -178,202 -76,52 -170,90 -280,114 -111,24 -234,36 -371,36l-854 0 0 -1756c167,-189 356,-363 560,-523zm246 912c39,0 77,-4 115,-14 37,-9 70,-23 99,-42 28,-20 51,-46 70,-79 18,-33 27,-73 27,-121 0,-50 -9,-92 -27,-125 -19,-33 -42,-59 -72,-79 -30,-19 -63,-33 -101,-41 -37,-8 -74,-12 -111,-12l-304 0 0 513 304 0zm31 971c36,0 77,-3 123,-9 45,-6 88,-19 126,-39 39,-21 71,-50 98,-89 26,-39 39,-92 39,-161 0,-61 -13,-111 -38,-150 -25,-39 -57,-69 -95,-91 -39,-21 -81,-36 -127,-44 -45,-8 -87,-12 -126,-12l-335 0 0 595 335 0z"/>
   <path class="fil1" d="M23574 3309c0,-103 18,-201 55,-291 37,-91 88,-171 154,-238 66,-68 145,-122 238,-160 93,-39 195,-59 307,-59 111,0 213,20 305,59 92,38 171,92 236,160 66,67 118,147 155,238 36,90 55,188 55,291 0,104 -19,201 -55,292 -37,91 -89,170 -155,238 -65,68 -144,122 -236,162 -92,40 -194,60 -305,60 -112,0 -214,-20 -307,-60 -93,-40 -172,-94 -238,-162 -66,-68 -117,-147 -154,-238 -37,-91 -55,-188 -55,-292zm-551 -1379l459 0 0 87 0 0 0 1996 -401 0 -18 -141c-44,52 -101,95 -169,130 -69,35 -148,53 -235,53 -86,0 -166,-17 -241,-51 -75,-34 -140,-83 -195,-146 -55,-62 -98,-138 -130,-227 -32,-89 -48,-189 -48,-301 0,-125 23,-236 68,-330 44,-95 102,-173 173,-235 71,-62 150,-109 237,-139 86,-31 172,-47 255,-47 68,0 121,5 159,14 27,6 55,14 84,23l2 -686zm-6885 679l496 0 332 922 320 -922 470 0 -601 1404 -407 0 -610 -1404zm-2619 -592l499 0 731 1996 -494 0 -153 -458 -703 0 -153 458 -291 0c-45,-44 -89,-89 -131,-135l695 -1861zm475 1188l-242 -755 -248 755 490 0zm1664 667c-44,52 -101,95 -169,130 -69,35 -148,53 -235,53 -86,0 -167,-17 -241,-51 -75,-34 -140,-83 -195,-146 -55,-62 -98,-138 -130,-227 -32,-89 -48,-189 -48,-301 0,-125 23,-236 67,-330 45,-95 103,-174 174,-235 71,-62 150,-109 236,-139 87,-31 173,-47 256,-47 68,0 121,5 159,14 38,9 77,20 117,34l0 -610 428 0 0 1996 -401 0 -18 -141zm-9 -877c-30,-18 -63,-31 -98,-39 -35,-8 -78,-12 -130,-12 -110,0 -195,37 -256,111 -61,74 -91,169 -91,284 0,102 25,185 75,250 50,65 125,97 224,97 48,0 90,-8 124,-25 35,-17 64,-39 87,-67 23,-28 40,-61 50,-99 10,-38 15,-77 15,-117l0 -383zm1964 314c0,-103 18,-201 55,-291 37,-91 88,-171 154,-238 66,-68 145,-122 238,-160 93,-39 195,-59 307,-59 112,0 213,20 305,59 92,38 171,92 237,160 65,67 117,147 154,238 37,90 55,188 55,291 0,104 -18,201 -55,292 -37,91 -89,170 -154,238 -66,68 -145,122 -237,162 -92,40 -193,60 -305,60 -112,0 -214,-20 -307,-60 -93,-40 -172,-94 -238,-162 -66,-68 -117,-147 -154,-238 -37,-91 -55,-188 -55,-292zm754 377c54,0 102,-10 144,-31 41,-21 77,-49 106,-85 29,-36 50,-77 64,-121 14,-45 21,-92 21,-140 0,-48 -7,-94 -21,-139 -14,-45 -35,-85 -64,-120 -29,-34 -65,-62 -106,-83 -42,-21 -90,-32 -144,-32 -54,0 -102,11 -145,32 -43,21 -78,49 -106,83 -28,35 -50,75 -65,120 -15,45 -22,91 -22,139 0,48 7,95 22,140 15,44 37,85 65,121 28,36 63,64 106,85 43,21 91,31 145,31zm1093 506c56,34 116,61 178,79 63,19 133,29 208,29 98,0 175,-26 231,-78 56,-52 84,-130 84,-233l0 -99c-90,78 -210,117 -360,117 -99,0 -189,-17 -267,-50 -79,-33 -146,-79 -199,-139 -54,-60 -96,-131 -125,-212 -28,-82 -43,-172 -43,-270 0,-113 20,-217 58,-309 39,-93 94,-173 165,-240 71,-67 156,-118 254,-154 99,-36 209,-54 331,-54 116,0 226,10 331,30 104,20 199,45 283,75l0 1284c0,231 -64,402 -192,513 -128,111 -302,166 -524,166 -125,0 -235,-12 -329,-36 -94,-24 -179,-62 -257,-114l173 -305zm704 -1227c-28,-10 -56,-17 -84,-22 -28,-5 -65,-8 -111,-8 -62,0 -116,11 -162,32 -45,21 -84,49 -115,83 -31,35 -54,76 -69,123 -14,47 -22,96 -22,148 0,102 24,183 73,243 49,60 121,89 214,89 88,0 156,-21 204,-64 48,-43 72,-110 72,-202l0 -422zm1379 916c-48,56 -108,99 -181,129 -73,30 -154,45 -244,45 -49,0 -102,-7 -157,-21 -55,-14 -105,-38 -152,-71 -47,-33 -86,-77 -117,-133 -31,-56 -46,-126 -46,-209 0,-82 16,-155 49,-219 33,-64 78,-117 136,-160 58,-43 126,-75 205,-97 79,-22 164,-33 256,-33 50,0 100,1 151,3 51,2 84,5 100,9l0 -30c0,-36 -7,-66 -22,-91 -15,-25 -35,-46 -60,-63 -25,-17 -53,-29 -85,-36 -32,-7 -66,-11 -102,-11 -96,0 -175,12 -238,36 -63,24 -116,51 -160,81l-177 -263c30,-22 64,-44 102,-66 38,-22 83,-42 135,-60 52,-18 110,-32 175,-43 65,-11 139,-17 223,-17 213,0 371,58 473,172 101,115 152,269 152,463l0 817 -404 0 -12 -132zm0 -488c-10,-2 -29,-4 -57,-7 -27,-3 -59,-5 -95,-5 -120,0 -205,17 -255,51 -50,34 -74,82 -74,144 0,115 69,173 209,173 34,0 67,-5 100,-16 33,-11 62,-27 87,-47 25,-20 45,-44 61,-74 16,-30 24,-65 24,-105l0 -114zm1511 -398c-30,-18 -63,-31 -98,-39 -34,-8 -78,-12 -130,-12 -109,0 -195,37 -256,111 -60,74 -91,169 -91,284 0,102 25,185 75,250 50,65 125,97 224,97 48,0 90,-8 125,-25 35,-17 63,-39 86,-67 23,-28 40,-61 50,-99 10,-38 15,-77 15,-117l0 -383zm1274 691c54,0 101,-10 143,-31 42,-21 78,-49 107,-85 29,-36 50,-77 64,-121 14,-45 21,-92 21,-140 0,-48 -7,-94 -21,-139 -14,-45 -35,-85 -64,-120 -29,-34 -65,-62 -107,-83 -42,-21 -89,-32 -143,-32 -54,0 -103,11 -145,32 -43,21 -79,49 -107,83 -28,35 -49,75 -64,120 -15,45 -22,91 -22,139 0,48 7,95 22,140 15,44 36,85 64,121 28,36 64,64 107,85 42,21 91,31 145,31z"/>
   <path class="fil2" d="M8290 594c-1542,-608 -3836,-636 -5588,12 -1214,449 -2541,1373 -2323,2855 197,1340 1580,2019 2734,2403 -1720,-385 -2919,-1321 -3091,-2487 -89,-610 99,-1136 432,-1574 1506,-1983 5566,-2241 7836,-1209z"/>
   <path class="fil3" d="M10641 2274c20,-33 35,-69 44,-107 5,-23 8,-46 8,-70 0,-34 -6,-67 -15,-98 -9,-28 -22,-55 -37,-80 -31,-47 -73,-86 -124,-113 -17,-10 -36,-17 -56,-23 -30,-10 -63,-15 -97,-15 -24,0 -48,3 -71,8 -29,6 -57,16 -82,30 -51,27 -93,66 -124,113 -20,33 -36,69 -44,107 -5,23 -8,46 -8,71 0,33 5,66 15,97 9,28 21,55 37,80 31,47 73,87 124,113 17,10 36,17 56,23 30,10 63,15 97,15 24,0 48,-3 71,-8 29,-6 57,-16 82,-30 51,-26 93,-66 124,-113z"/>
   <path class="fil1" d="M23022 2412l0 -636c158,47 311,99 460,154l0 482 -460 0z"/>
  </g>
 </g>
</svg>
