<?xml version="1.0" encoding="UTF-8"?>
<!DOCTYPE svg PUBLIC "-//W3C//DTD SVG 1.1//EN" "http://www.w3.org/Graphics/SVG/1.1/DTD/svg11.dtd">
<!-- Creator: CorelDRAW X7 -->
<svg xmlns="http://www.w3.org/2000/svg" xml:space="preserve" width="122.805mm" height="63.8796mm" version="1.1" style="shape-rendering:geometricPrecision; text-rendering:geometricPrecision; image-rendering:optimizeQuality; fill-rule:evenodd; clip-rule:evenodd"
viewBox="0 0 12280 6388"
 xmlns:xlink="http://www.w3.org/1999/xlink">
 <defs>
  <style type="text/css">
   <![CDATA[
    .fil3 {fill:#EDBC61}
    .fil2 {fill:#BD1247}
    .fil0 {fill:#EDBC61;fill-rule:nonzero}
    .fil1 {fill:white;fill-rule:nonzero}
   ]]>
  </style>
 </defs>
 <g id="Camada_x0020_1">
  <metadata id="CorelCorpID_0Corel-Layer"/>
  <g id="_883062224">
   <path class="fil0" d="M9331 5155c-40,46 -91,82 -152,107 -60,25 -128,37 -203,37 -42,0 -85,-5 -131,-17 -46,-12 -88,-31 -127,-59 -40,-27 -72,-64 -98,-111 -26,-46 -39,-105 -39,-175 0,-68 14,-129 42,-182 27,-53 65,-98 113,-133 49,-36 106,-63 171,-82 66,-18 137,-27 214,-27 41,0 83,1 126,2 42,2 70,5 84,8l0 -25c0,-30 -7,-55 -19,-76 -13,-21 -29,-39 -50,-53 -21,-14 -45,-24 -71,-30 -27,-5 -55,-8 -85,-8 -80,0 -146,10 -199,30 -52,20 -97,42 -133,67l-148 -220c25,-18 54,-36 85,-55 32,-18 69,-35 113,-50 43,-15 92,-27 146,-36 54,-9 116,-14 186,-14 178,0 309,48 394,144 85,96 128,224 128,386l0 681 -337 0 -10 -109zm0 -407c-9,-2 -25,-4 -48,-7 -23,-2 -50,-3 -80,-3 -100,0 -170,14 -212,42 -42,28 -62,68 -62,120 0,96 58,145 174,145 29,0 56,-5 84,-14 27,-9 52,-22 72,-39 21,-16 38,-37 52,-62 13,-25 20,-54 20,-87l0 -95z"/>
   <path class="fil0" d="M7593 5414c46,29 96,51 148,66 53,16 110,24 174,24 81,0 145,-21 192,-65 46,-43 70,-108 70,-194l0 -83c-75,65 -175,98 -300,98 -83,0 -158,-14 -223,-42 -66,-27 -121,-66 -166,-116 -45,-50 -80,-109 -104,-177 -24,-68 -36,-143 -36,-225 0,-95 16,-181 49,-258 32,-78 78,-144 137,-200 59,-56 130,-99 212,-129 82,-30 174,-45 276,-45 97,0 189,9 276,25 87,17 166,38 236,63l0 1071c0,193 -53,336 -160,428 -106,93 -252,139 -437,139 -105,0 -196,-10 -275,-30 -78,-20 -149,-52 -214,-95l145 -255zm586 -1023c-23,-9 -46,-15 -70,-19 -23,-4 -54,-6 -92,-6 -52,0 -97,8 -135,26 -38,17 -70,41 -96,70 -26,29 -45,63 -57,102 -13,39 -19,80 -19,124 0,85 20,152 61,202 41,50 100,75 179,75 73,0 129,-18 169,-54 40,-36 60,-92 60,-168l0 -352z"/>
   <path class="fil0" d="M6051 4678c0,-87 15,-168 46,-244 31,-75 74,-142 129,-198 55,-57 121,-101 198,-134 78,-32 163,-49 256,-49 93,0 178,17 255,49 77,33 142,77 197,134 55,56 98,123 129,198 31,76 46,157 46,244 0,86 -15,167 -46,243 -31,76 -74,142 -129,199 -55,56 -120,101 -197,135 -77,33 -162,49 -255,49 -93,0 -178,-16 -256,-49 -77,-34 -143,-79 -198,-135 -55,-57 -98,-123 -129,-199 -31,-76 -46,-157 -46,-243zm629 314c45,0 85,-8 120,-26 35,-17 65,-41 89,-71 24,-30 42,-64 53,-101 12,-38 18,-76 18,-116 0,-40 -6,-79 -18,-116 -11,-38 -29,-71 -53,-100 -24,-29 -54,-53 -89,-70 -35,-18 -75,-26 -120,-26 -45,0 -85,8 -121,26 -36,17 -65,41 -88,70 -24,29 -42,62 -54,100 -13,37 -19,76 -19,116 0,40 6,78 19,116 12,37 30,71 54,101 23,30 52,54 88,71 36,18 76,26 121,26z"/>
   <path class="fil0" d="M4420 5147c-37,43 -84,80 -141,109 -58,29 -123,43 -196,43 -72,0 -139,-14 -201,-42 -63,-28 -117,-69 -163,-121 -45,-52 -82,-116 -108,-190 -27,-74 -40,-158 -40,-251 0,-105 18,-197 56,-276 37,-79 86,-144 145,-196 59,-51 125,-90 197,-116 72,-26 144,-39 213,-39 57,0 101,4 133,12 31,7 64,17 97,28l0 -509 357 0 0 1665 -334 0 -15 -117zm-8 -731c-25,-15 -52,-26 -81,-33 -29,-7 -65,-10 -109,-10 -91,0 -162,31 -213,92 -51,62 -76,141 -76,238 0,85 21,154 62,208 42,54 104,81 187,81 40,0 75,-7 104,-21 29,-14 53,-33 73,-56 19,-23 32,-51 41,-82 8,-32 12,-65 12,-98l0 -319z"/>
   <path class="fil1" d="M2481 1454l245 0c118,0 218,14 299,41 82,28 149,64 200,110 51,46 88,98 111,158 23,60 34,123 34,187 0,61 -11,115 -32,161 -22,47 -48,87 -77,120 -30,33 -61,59 -94,78 -34,19 -62,32 -85,37 35,8 74,22 119,42 44,20 87,48 127,85 40,37 73,84 101,140 27,56 41,122 41,198 0,99 -17,183 -53,251 -35,69 -84,125 -148,168 -64,44 -141,76 -234,96 -92,20 -195,30 -309,30l-713 0 0 -1465c140,-158 298,-303 468,-437zm205 761c32,0 64,-3 96,-11 31,-8 59,-20 82,-36 24,-16 44,-38 59,-65 15,-28 23,-62 23,-102 0,-41 -8,-76 -23,-104 -15,-27 -35,-49 -60,-65 -25,-16 -53,-28 -84,-34 -32,-7 -63,-10 -93,-10l-254 0 0 427 254 0zm26 810c30,0 64,-2 102,-7 38,-5 74,-16 106,-33 32,-17 59,-42 81,-74 22,-32 33,-77 33,-134 0,-51 -11,-93 -31,-125 -21,-33 -48,-58 -80,-76 -33,-18 -68,-30 -106,-37 -38,-7 -73,-10 -105,-10l-280 0 0 496 280 0z"/>
   <path class="fil1" d="M3515 2686c0,-99 18,-192 53,-278 35,-87 84,-162 147,-227 62,-65 138,-115 226,-152 89,-38 186,-56 292,-56 107,0 204,18 291,56 88,37 163,87 226,152 62,65 111,140 146,227 36,86 53,179 53,278 0,99 -17,191 -53,278 -35,86 -84,162 -146,226 -63,65 -138,116 -226,154 -87,38 -184,57 -291,57 -106,0 -203,-19 -292,-57 -88,-38 -164,-89 -226,-154 -63,-64 -112,-140 -147,-226 -35,-87 -53,-179 -53,-278zm718 359c52,0 97,-10 137,-30 40,-20 74,-47 102,-81 27,-34 48,-73 61,-116 13,-42 20,-87 20,-132 0,-46 -7,-90 -20,-133 -13,-43 -34,-81 -61,-114 -28,-33 -62,-60 -102,-80 -40,-20 -85,-30 -137,-30 -51,0 -97,10 -138,30 -41,20 -74,47 -101,80 -27,33 -47,71 -61,114 -15,43 -22,87 -22,133 0,45 7,90 22,132 14,43 34,82 61,116 27,34 60,61 101,81 41,20 87,30 138,30z"/>
   <path class="fil0" d="M10948 3792l0 1472 -335 0 -15 -117c-36,43 -83,80 -141,109 -57,29 -123,43 -196,43 -71,0 -138,-14 -201,-42 -62,-28 -116,-69 -162,-121 -46,-53 -82,-116 -109,-190 -26,-74 -40,-158 -40,-251 0,-105 19,-197 56,-276 38,-79 86,-144 145,-196 59,-51 125,-90 198,-116 72,-26 143,-39 213,-39 57,0 101,4 132,12 23,5 47,12 70,19l1 -435 384 128zm-357 624c-25,-15 -52,-26 -81,-33 -30,-7 -66,-10 -109,-10 -92,0 -163,31 -214,92 -50,62 -76,141 -76,238 0,85 21,154 63,208 41,54 104,81 187,81 40,0 75,-7 104,-21 29,-14 53,-33 72,-56 19,-23 33,-51 41,-82 9,-32 13,-65 13,-98l0 -319z"/>
   <path class="fil1" d="M10566 3230c-46,54 -118,94 -187,123 -69,28 -147,43 -232,43 -48,0 -98,-7 -150,-20 -52,-14 -101,-36 -146,-67 -44,-32 -81,-74 -111,-127 -29,-53 -44,-120 -44,-200 0,-78 16,-147 47,-208 32,-61 75,-112 130,-152 55,-41 120,-72 195,-93 75,-21 157,-31 244,-31 47,0 95,1 144,2 48,2 80,5 95,9l0 -29c0,-34 -7,-63 -21,-86 -14,-24 -33,-44 -57,-60 -24,-17 -51,-28 -81,-35 -31,-6 -63,-10 -97,-10 -91,0 -167,12 -227,35 -60,22 -111,48 -152,77l-169 -251c29,-21 61,-42 97,-63 36,-21 79,-40 129,-57 49,-17 105,-31 166,-41 62,-11 133,-16 213,-16 203,0 354,55 450,164 97,109 146,256 146,440l0 1022 0 0 0 122 -383 -128 1 -363zm-15 -464c-9,-2 -27,-5 -54,-8 -26,-2 -57,-4 -91,-4 -114,0 -195,16 -242,49 -48,32 -72,78 -72,137 0,110 67,165 200,165 32,0 64,-5 96,-16 31,-10 58,-25 82,-44 24,-19 43,-43 59,-71 15,-29 22,-62 22,-100l0 -108z"/>
   <path class="fil1" d="M8649 3222c-42,49 -96,91 -162,124 -65,33 -140,50 -223,50 -82,0 -159,-16 -230,-49 -71,-32 -133,-78 -185,-138 -53,-60 -94,-132 -124,-217 -31,-84 -46,-180 -46,-286 0,-120 21,-225 64,-315 43,-91 98,-165 166,-224 67,-59 142,-103 225,-133 83,-29 164,-44 244,-44 64,0 115,4 151,13 36,8 73,19 111,33l0 -858c140,42 276,87 408,136l0 2042 -382 0 -17 -134zm-9 -836c-29,-17 -59,-29 -93,-37 -33,-7 -74,-11 -124,-11 -104,0 -186,35 -244,105 -57,71 -86,161 -86,271 0,97 23,177 71,238 47,62 119,93 214,93 45,0 85,-8 118,-24 33,-16 61,-38 83,-64 22,-27 37,-58 47,-94 9,-37 14,-74 14,-112l0 -365z"/>
   <path class="fil0" d="M11024 4678c0,-87 16,-168 47,-244 30,-75 73,-142 128,-198 55,-57 121,-101 199,-134 77,-32 163,-49 256,-49 93,0 178,17 254,49 77,33 143,77 198,134 55,56 97,123 128,198 31,76 46,157 46,244 0,86 -15,167 -46,243 -31,76 -73,142 -128,199 -55,56 -121,101 -198,135 -76,33 -161,49 -254,49 -93,0 -179,-16 -256,-49 -78,-34 -144,-79 -199,-135 -55,-57 -98,-123 -128,-199 -31,-76 -47,-157 -47,-243zm630 314c45,0 85,-8 120,-26 35,-17 64,-41 88,-71 24,-30 42,-64 54,-101 12,-38 17,-76 17,-116 0,-40 -5,-79 -17,-116 -12,-38 -30,-71 -54,-100 -24,-29 -53,-53 -88,-70 -35,-18 -75,-26 -120,-26 -45,0 -86,8 -121,26 -36,17 -66,41 -89,70 -23,29 -41,62 -54,100 -12,37 -18,76 -18,116 0,40 6,78 18,116 13,37 31,71 54,101 23,30 53,54 89,71 35,18 76,26 121,26z"/>
   <path class="fil0" d="M2635 3599l417 0 609 1665 -412 0 -127 -382 -587 0 -127 382 -244 0c-37,-36 -73,-74 -109,-112l580 -1553zm397 991l-202 -629 -208 629 410 0z"/>
   <polygon class="fil0" points="4821,4093 5234,4093 5512,4862 5779,4093 6171,4093 5669,5264 5329,5264 "/>
   <path class="fil1" d="M5040 2019l393 0 14 148c42,-51 95,-94 160,-128 65,-35 141,-52 228,-52 53,0 101,6 143,17 41,12 78,26 109,45 32,18 59,38 83,59 24,22 43,44 59,65 55,-59 122,-105 201,-137 78,-33 161,-49 246,-49 171,0 302,49 392,146 91,97 136,229 136,396l0 827 -411 0 0 -761c0,-80 -18,-142 -53,-186 -35,-44 -88,-65 -158,-65 -80,0 -143,27 -191,82 -47,55 -71,126 -71,211l0 719 -397 0 0 -761c0,-80 -17,-142 -52,-186 -36,-44 -88,-65 -159,-65 -78,0 -141,27 -189,82 -49,55 -73,126 -73,211l0 719 -410 0 0 -1337z"/>
   <path class="fil1" d="M9617 2036l0 1320 -410 0 0 -1320c57,43 128,61 205,61 77,0 148,-18 205,-61z"/>
   <path class="fil2" d="M9031 647c-1681,-662 -4179,-693 -6087,13 -1323,489 -2769,1496 -2531,3111 214,1459 1721,2198 2978,2617 -1874,-419 -3180,-1440 -3367,-2709 -97,-665 108,-1238 470,-1715 1641,-2160 6063,-2442 8537,-1317z"/>
   <path class="fil3" d="M9643 1897c17,-27 30,-57 37,-89 4,-19 6,-39 6,-59 0,-28 -4,-55 -12,-81 -8,-24 -18,-46 -31,-66 -26,-40 -61,-73 -103,-95 -15,-8 -31,-15 -47,-20 -26,-8 -53,-12 -81,-12 -20,0 -40,2 -59,6 -24,6 -48,14 -69,26 -42,22 -78,55 -103,95 -17,26 -30,56 -37,88 -4,19 -6,39 -6,59 0,29 4,56 12,81 7,24 18,46 31,67 25,40 61,73 103,95 15,8 30,14 47,19 25,8 53,12 81,12 20,0 40,-2 59,-6 24,-5 47,-14 69,-25 42,-22 77,-55 103,-95z"/>
  </g>
 </g>
</svg>
